<?xml version="1.0" encoding="UTF-8"?>
<svg xmlns="http://www.w3.org/2000/svg" xmlns:xlink="http://www.w3.org/1999/xlink" width="500pt" height="500pt" viewBox="0 0 500 500" version="1.1">
<g id="surface500252">
<path style=" stroke:none;fill-rule:nonzero;fill:rgb(0%,0%,0%);fill-opacity:1;" d="M 80 30.117188 C 63.125 30.117188 48.355469 34.917969 37.539062 43.652344 C 26.722656 52.386719 20.117188 65.332031 20.117188 79.472656 C 20.117188 106.910156 44.6875 128.144531 77.167969 129.414062 C 78.085938 129.707031 79.039062 129.863281 80 129.882812 C 97.535156 129.882812 112.460938 124.742188 123.125 115.644531 C 133.789062 106.546875 139.882812 93.429688 139.882812 79.472656 C 139.882812 79.289062 139.875 79.109375 139.863281 78.925781 C 138.324219 51.316406 113.746094 30.117188 80 30.117188 Z M 80 49.882812 C 106.089844 49.882812 118.957031 62.695312 120.058594 79.726562 C 119.988281 88.050781 116.765625 95.117188 110.3125 100.625 C 103.789062 106.191406 93.714844 110.117188 80 110.117188 C 53.980469 110.117188 39.882812 95.992188 39.882812 79.472656 C 39.882812 71.214844 43.277344 64.421875 49.960938 59.023438 C 56.644531 53.625 66.875 49.882812 80 49.882812 Z M 30 150 C 24.476562 150 20 154.476562 20 160 L 20 450 C 20 455.523438 24.476562 460 30 460 L 130 460 C 135.523438 460 140 455.523438 140 450 L 140 160 C 140 154.476562 135.523438 150 130 150 Z M 180 150 C 174.476562 150 170 154.476562 170 160 L 170 450 C 170 455.523438 174.476562 460 180 460 L 280 460 C 285.523438 460 290 455.523438 290 450 L 290 285 C 290 265.554688 305.554688 250 325 250 C 344.445312 250 360 265.554688 360 285 L 360 450 C 360 455.523438 364.476562 460 370 460 L 470 460 C 475.523438 460 480 455.523438 480 450 L 480 280 C 480 238.734375 467.878906 206.042969 447.441406 183.75 C 427.003906 161.457031 398.492188 150 367.871094 150 C 328.828125 150 305.214844 164.261719 290 176.015625 L 290 160 C 290 154.476562 285.523438 150 280 150 Z M 40 170 L 120 170 L 120 440 L 40 440 Z M 190 170 L 270 170 L 270 196.386719 C 270 200.527344 272.554688 204.242188 276.425781 205.722656 C 280.292969 207.203125 284.671875 206.148438 287.441406 203.066406 C 287.441406 203.066406 317.097656 170 367.871094 170 C 393.601562 170 416.15625 179.222656 432.695312 197.265625 C 449.234375 215.308594 460 242.617188 460 280 L 460 440 L 380 440 L 380 285 C 380.011719 283.589844 379.726562 282.191406 379.160156 280.898438 C 376.941406 252.640625 353.804688 230 325 230 C 294.746094 230 270 254.746094 270 285 L 270 440 L 190 440 Z M 190 170 "/>
</g>
</svg>
